<!DOCTYPE svg PUBLIC "-//W3C//DTD SVG 1.1//EN" "http://www.w3.org/Graphics/SVG/1.1/DTD/svg11.dtd">
<!-- Uploaded to: SVG Repo, www.svgrepo.com, Transformed by: SVG Repo Mixer Tools -->
<svg version="1.0" id="Layer_1" xmlns="http://www.w3.org/2000/svg" xmlns:xlink="http://www.w3.org/1999/xlink" width="800px" height="800px" viewBox="0 0 64 64" enable-background="new 0 0 64 64" xml:space="preserve" fill="#1E4CC6">
<g id="SVGRepo_bgCarrier" stroke-width="0"/>
<g id="SVGRepo_tracerCarrier" stroke-linecap="round" stroke-linejoin="round"/>
<g id="SVGRepo_iconCarrier"> <g> <path fill="1E4CC6" d="M18,10v54h9V53c0-0.553,0.447-1,1-1h8c0.553,0,1,0.447,1,1v11h9V20V4c0-2.211-1.789-4-4-4H22 c-2.211,0-4,1.789-4,4V10z M34,9c0-0.553,0.447-1,1-1h4c0.553,0,1,0.447,1,1v4c0,0.553-0.447,1-1,1h-4c-0.553,0-1-0.447-1-1V9z M34,19c0-0.553,0.447-1,1-1h4c0.553,0,1,0.447,1,1v4c0,0.553-0.447,1-1,1h-4c-0.553,0-1-0.447-1-1V19z M34,29c0-0.553,0.447-1,1-1 h4c0.553,0,1,0.447,1,1v4c0,0.553-0.447,1-1,1h-4c-0.553,0-1-0.447-1-1V29z M34,39c0-0.553,0.447-1,1-1h4c0.553,0,1,0.447,1,1v4 c0,0.553-0.447,1-1,1h-4c-0.553,0-1-0.447-1-1V39z M24,9c0-0.553,0.447-1,1-1h4c0.553,0,1,0.447,1,1v4c0,0.553-0.447,1-1,1h-4 c-0.553,0-1-0.447-1-1V9z M24,19c0-0.553,0.447-1,1-1h4c0.553,0,1,0.447,1,1v4c0,0.553-0.447,1-1,1h-4c-0.553,0-1-0.447-1-1V19z M24,29c0-0.553,0.447-1,1-1h4c0.553,0,1,0.447,1,1v4c0,0.553-0.447,1-1,1h-4c-0.553,0-1-0.447-1-1V29z M24,39c0-0.553,0.447-1,1-1 h4c0.553,0,1,0.447,1,1v4c0,0.553-0.447,1-1,1h-4c-0.553,0-1-0.447-1-1V39z"/> <rect x="26" y="30" fill="1E4CC6" width="2" height="2"/> <rect x="26" y="40" fill="1E4CC6" width="2" height="2"/> <rect x="29" y="54" fill="1E4CC6" width="6" height="10"/> <rect x="8" y="50" fill="1E4CC6" width="2" height="2"/> <rect x="26" y="10" fill="1E4CC6" width="2" height="2"/> <rect x="26" y="20" fill="1E4CC6" width="2" height="2"/> <rect x="36" y="20" fill="1E4CC6" width="2" height="2"/> <rect x="36" y="10" fill="1E4CC6" width="2" height="2"/> <rect x="36" y="30" fill="1E4CC6" width="2" height="2"/> <rect x="36" y="40" fill="1E4CC6" width="2" height="2"/> <rect x="8" y="40" fill="1E4CC6" width="2" height="2"/> <path fill="1E4CC6" d="M16,10H4c-2.211,0-4,1.789-4,4v46c0,2.211,1.789,4,4,4h12V10z M12,53c0,0.553-0.447,1-1,1H7 c-0.553,0-1-0.447-1-1v-4c0-0.553,0.447-1,1-1h4c0.553,0,1,0.447,1,1V53z M12,43c0,0.553-0.447,1-1,1H7c-0.553,0-1-0.447-1-1v-4 c0-0.553,0.447-1,1-1h4c0.553,0,1,0.447,1,1V43z M12,33c0,0.553-0.447,1-1,1H7c-0.553,0-1-0.447-1-1v-4c0-0.553,0.447-1,1-1h4 c0.553,0,1,0.447,1,1V33z M11,24H7c-0.553,0-1-0.447-1-1v-4c0-0.553,0.447-1,1-1h4c0.553,0,1,0.447,1,1v4 C12,23.553,11.553,24,11,24z"/> <rect x="54" y="50" fill="1E4CC6" width="2" height="2"/> <rect x="54" y="40" fill="1E4CC6" width="2" height="2"/> <rect x="54" y="30" fill="1E4CC6" width="2" height="2"/> <path fill="1E4CC6" d="M60,20H48v44h12c2.211,0,4-1.789,4-4V24C64,21.789,62.211,20,60,20z M58,53c0,0.553-0.447,1-1,1h-4 c-0.553,0-1-0.447-1-1v-4c0-0.553,0.447-1,1-1h4c0.553,0,1,0.447,1,1V53z M58,43c0,0.553-0.447,1-1,1h-4c-0.553,0-1-0.447-1-1v-4 c0-0.553,0.447-1,1-1h4c0.553,0,1,0.447,1,1V43z M58,33c0,0.553-0.447,1-1,1h-4c-0.553,0-1-0.447-1-1v-4c0-0.553,0.447-1,1-1h4 c0.553,0,1,0.447,1,1V33z"/> <rect x="8" y="30" fill="1E4CC6" width="2" height="2"/> <rect x="8" y="20" fill="1E4CC6" width="2" height="2"/> </g> </g>
</svg>