<!DOCTYPE svg PUBLIC "-//W3C//DTD SVG 1.1//EN" "http://www.w3.org/Graphics/SVG/1.1/DTD/svg11.dtd">
<!-- Uploaded to: SVG Repo, www.svgrepo.com, Transformed by: SVG Repo Mixer Tools -->
<svg width="800px" height="800px" viewBox="0 0 1024 1024" class="icon" version="1.1" xmlns="http://www.w3.org/2000/svg" fill="#2e2e2e" stroke="#2e2e2e">
<g id="SVGRepo_bgCarrier" stroke-width="0"/>
<g id="SVGRepo_tracerCarrier" stroke-linecap="round" stroke-linejoin="round"/>
<g id="SVGRepo_iconCarrier">
<path d="M513 447.1m-430.4 0a430.4 430.4 0 1 0 860.8 0 430.4 430.4 0 1 0-860.8 0Z" fill="#E5DA75"/>
<path d="M345.1 510.3V629l63.6 30.5v216.3c0 25.9 22.3 46.9 49.9 46.9h102.7c27.6 0 49.9-21 49.9-46.9V613.5L510 540.8l-164.9-30.5z" fill="#FFFFFF"/>
<path d="M561.2 932.7H458.6c-33 0-59.9-25.5-59.9-57v-210L340.8 638c-3.5-1.7-5.7-5.2-5.7-9V510.3c0-3 1.3-5.8 3.6-7.7 2.3-1.9 5.3-2.7 8.2-2.1L511.7 531c1.4 0.3 2.8 0.9 4 1.7l101.2 72.7c2.6 1.9 4.2 4.9 4.2 8.1v262.3c0 31.4-26.9 56.9-59.9 56.9zM355.1 622.8l57.9 27.7c3.5 1.7 5.7 5.2 5.7 9v216.3c0 20.4 17.9 37 39.9 37h102.7c22 0 39.9-16.6 39.9-37V618.6L506 550.2l-150.8-27.9v100.5z" fill=""/>
<path d="M572.8 996H453.2c-22.9 0-41.5-18.6-41.5-41.5v-59.4c0-22 17.9-39.9 39.9-39.9h122.6c22 0 39.9 17.9 39.9 39.9v59.4c0.1 22.9-18.4 41.5-41.3 41.5z" fill="#1E4CC6"/>
<path d="M572.8 1006H453.2c-28.4 0-51.5-23.1-51.5-51.5v-59.4c0-27.5 22.4-49.9 49.9-49.9h122.6c27.5 0 49.9 22.4 49.9 49.9v59.4c0.1 28.4-23 51.5-51.3 51.5zM451.7 865.2c-16.5 0-29.9 13.4-29.9 29.9v59.4c0 17.3 14.1 31.5 31.5 31.5h119.5c17.3 0 31.5-14.1 31.5-31.5v-59.4c0-16.5-13.4-29.9-29.9-29.9H451.7z" fill=""/>
<path d="M336.9 751.4h346v140.8h-346z" fill="#f5f5f5"/>
<path d="M682.9 902.2h-346c-5.5 0-10-4.5-10-10V751.4c0-5.5 4.5-10 10-10h346c5.5 0 10 4.5 10 10v140.8c0 5.5-4.5 10-10 10z m-336-20h326V761.4h-326v120.8z" fill=""/>
<path d="M697.6 667c-12.9 19.6-40.4 25.7-61.3 13.6l-327-190.1c-20.8-12.1-27.3-38.1-14.5-57.7 12.9-19.6 40.4-25.7 61.3-13.6l327.1 190.1c20.8 12.1 27.3 38.1 14.4 57.7z" fill="#FFFFFF"/>
<path d="M659.6 696.8c-9.7 0-19.5-2.4-28.3-7.6l-327-190.1c-12.7-7.4-21.4-19.1-24.7-32.9-3.2-13.4-0.7-27.2 6.9-38.9 15.8-24 49.3-31.6 74.7-16.8l327.1 190.1c12.7 7.4 21.4 19.1 24.7 32.9 3.2 13.4 0.7 27.2-6.9 38.9-10.4 15.8-28.3 24.4-46.5 24.4zM332.7 422.9c-11.6 0-23 5.5-29.5 15.4-4.6 7-6.1 15.3-4.2 23.3 2 8.5 7.4 15.7 15.3 20.2L641.4 672c16.4 9.5 37.8 4.8 47.9-10.5 4.6-7 6.1-15.3 4.2-23.3-2-8.5-7.4-15.7-15.3-20.2L351 427.9c-5.7-3.4-12.1-5-18.3-5z" fill=""/>
<path d="M731.2 509.6c-12.9 19.6-40.4 25.7-61.3 13.6L342.8 333.1C322 321 315.5 295 328.3 275.4c12.9-19.6 40.4-25.7 61.3-13.6l327.1 190.1c20.9 12.2 27.4 38.1 14.5 57.7z" fill="#FFFFFF"/>
<path d="M693.2 539.4c-9.7 0-19.5-2.4-28.3-7.6l-327.1-190c-12.7-7.4-21.4-19.1-24.7-32.9-3.2-13.4-0.7-27.2 6.9-38.9 15.8-24 49.3-31.6 74.7-16.8l327.1 190.1c12.7 7.4 21.4 19.1 24.7 32.9 3.2 13.4 0.7 27.2-6.9 38.9-10.3 15.7-28.2 24.3-46.4 24.3z m-327-273.9c-11.6 0-23 5.5-29.5 15.4-4.6 7-6.1 15.3-4.2 23.3 2 8.5 7.4 15.7 15.3 20.2L675 514.6c16.4 9.5 37.8 4.8 47.9-10.5 4.6-7 6.1-15.3 4.2-23.3-2-8.5-7.4-15.7-15.3-20.2L384.6 270.5c-5.7-3.4-12.1-5-18.4-5z" fill=""/>
<path d="M684 321.1c-13 19.8-40.9 26-62 13.8l-203-118c-21.1-12.2-27.7-38.5-14.6-58.3 13-19.8 40.9-26 62-13.8l203.1 118c20.9 12.2 27.5 38.5 14.5 58.3z" fill="#FFFFFF"/>
<path d="M645.5 351.2c-9.8 0-19.6-2.5-28.5-7.6l-203.1-118c-12.8-7.4-21.6-19.2-24.9-33.2-3.2-13.6-0.7-27.5 7-39.2 15.9-24.2 49.7-31.8 75.3-16.9l203.1 118c12.8 7.4 21.6 19.2 24.9 33.2 3.2 13.6 0.7 27.5-7 39.2-10.3 15.7-28.4 24.5-46.8 24.5zM442.6 148.4c-11.8 0-23.3 5.5-29.9 15.6-4.6 7.1-6.1 15.5-4.2 23.6 2 8.6 7.5 15.9 15.5 20.5l203.1 118c16.6 9.7 38.4 4.9 48.6-10.6 4.6-7.1 6.1-15.5 4.2-23.6-2-8.6-7.5-15.9-15.5-20.5l-203.1-118c-5.9-3.4-12.3-5-18.7-5z" fill=""/>
</g>
</svg>